<svg xmlns="http://www.w3.org/2000/svg" width="111.12" height="117.91" viewBox="0 0 111.12 117.91">
  <defs>
    <style>
      .cls-1 {
        fill: #fff;
        fill-rule: evenodd;
      }
    </style>
  </defs>
  <path id="Bus" class="cls-1" d="M1343.12,1396.6h-35.11a38.075,38.075,0,0,0-38.01,38.06v49.23a15.215,15.215,0,0,0,10.9,14.55v5.68a10.375,10.375,0,1,0,20.75,0v-4.98h47.82v4.98a10.375,10.375,0,1,0,20.75,0v-5.68a15.225,15.225,0,0,0,10.9-14.55v-49.23A38.073,38.073,0,0,0,1343.12,1396.6Zm30.15,87.29a7.388,7.388,0,0,1-7.37,7.39h-80.67a7.39,7.39,0,0,1-7.38-7.39v-49.23a30.216,30.216,0,0,1,30.16-30.2h35.11a30.207,30.207,0,0,1,30.15,30.2v49.23Zm-76.85-22.79h58.29a7.708,7.708,0,0,0,7.69-7.7V1433a12.8,12.8,0,0,0-12.78-12.79H1301.5a12.805,12.805,0,0,0-12.78,12.79v20.4A7.71,7.71,0,0,0,1296.42,1461.1Zm-3.77-28.1a8.868,8.868,0,0,1,8.85-8.86h48.12a8.877,8.877,0,0,1,8.86,8.86v20.4a3.773,3.773,0,0,1-3.77,3.77h-58.29a3.773,3.773,0,0,1-3.77-3.77V1433Zm25.56-17.4h14.71a2.95,2.95,0,0,0,0-5.9h-14.71A2.95,2.95,0,0,0,1318.21,1415.6Zm20.6,58.81h-26.49a2.95,2.95,0,0,0,0,5.9h26.49A2.95,2.95,0,0,0,1338.81,1474.41Zm-38.11-4.59h-13.08a4.754,4.754,0,0,0-4.75,4.75v5.57a4.754,4.754,0,0,0,4.75,4.75h13.08a4.746,4.746,0,0,0,4.74-4.75v-5.57A4.746,4.746,0,0,0,1300.7,1469.82Zm0.82,10.32a0.817,0.817,0,0,1-.82.82h-13.08a0.811,0.811,0,0,1-.82-0.82v-5.57a0.817,0.817,0,0,1,.82-0.82h13.08a0.824,0.824,0,0,1,.82.82v5.57Zm48.9-10.32a4.752,4.752,0,0,0-4.74,4.75v5.57a4.752,4.752,0,0,0,4.74,4.75h13.09a4.746,4.746,0,0,0,4.74-4.75v-5.57a4.746,4.746,0,0,0-4.74-4.75h-13.09Zm13.91,4.75v5.57a0.817,0.817,0,0,1-.82.82h-13.09a0.809,0.809,0,0,1-.81-0.82v-5.57a0.815,0.815,0,0,1,.81-0.82h13.09A0.824,0.824,0,0,1,1364.33,1474.57Z" transform="translate(-1270 -1396.59)"/>
</svg>
