<svg xmlns="http://www.w3.org/2000/svg" width="570.46" height="66" viewBox="0 0 570.46 66">
  <defs>
    <style>
      .cls-1 {
        fill: #008de5;
        fill-rule: evenodd;
      }
    </style>
  </defs>
  <path id="Shape" class="cls-1" d="M1738.47,1776.97a9.485,9.485,0,1,1-9.57,9.48A9.524,9.524,0,0,1,1738.47,1776.97Zm-79.34,0a9.485,9.485,0,1,1-9.56,9.48A9.524,9.524,0,0,1,1659.13,1776.97Zm-79.34,0a9.485,9.485,0,1,1-9.56,9.48A9.524,9.524,0,0,1,1579.79,1776.97Zm-79.34,0a9.485,9.485,0,1,1-9.56,9.48A9.524,9.524,0,0,1,1500.45,1776.97Zm-79.33,0a9.485,9.485,0,1,1-9.56,9.48A9.524,9.524,0,0,1,1421.12,1776.97Zm-79.34,0a9.485,9.485,0,1,1-9.56,9.48A9.524,9.524,0,0,1,1341.78,1776.97Zm-79.34,0a9.485,9.485,0,1,1-9.56,9.48A9.524,9.524,0,0,1,1262.44,1776.97Zm551.34-47.04a9.48,9.48,0,1,1-9.56,9.48A9.524,9.524,0,0,1,1813.78,1729.93Zm-79.34,0a9.48,9.48,0,1,1-9.56,9.48A9.524,9.524,0,0,1,1734.44,1729.93Zm-79.33,0a9.48,9.48,0,1,1-9.57,9.48A9.524,9.524,0,0,1,1655.11,1729.93Zm-79.34,0a9.48,9.48,0,1,1-9.56,9.48A9.524,9.524,0,0,1,1575.77,1729.93Zm-79.34,0a9.48,9.48,0,1,1-9.56,9.48A9.524,9.524,0,0,1,1496.43,1729.93Zm-79.34,0a9.48,9.48,0,1,1-9.56,9.48A9.526,9.526,0,0,1,1417.09,1729.93Zm-79.33,0a9.48,9.48,0,1,1-9.56,9.48A9.524,9.524,0,0,1,1337.76,1729.93Z" transform="translate(-1252.88 -1729.94)"/>
</svg>
