<svg xmlns="http://www.w3.org/2000/svg" width="516.18" height="516.188" viewBox="0 0 516.18 516.188">
  <defs>
    <style>
      .cls-1 {
        fill: #008de5;
        fill-rule: evenodd;
      }
    </style>
  </defs>
  <path id="Shape" class="cls-1" d="M1298,543.18c-142.31,0-258.09-115.78-258.09-258.091S1155.69,27,1298,27s258.09,115.78,258.09,258.09S1440.31,543.18,1298,543.18Zm0-461.222c-112.01,0-203.13,91.127-203.13,203.132S1185.99,488.221,1298,488.221s203.13-91.127,203.13-203.132S1410,81.958,1298,81.958Zm0,354.532c-83.48,0-151.4-67.918-151.4-151.4s67.92-151.4,151.4-151.4,151.39,67.917,151.39,151.4S1381.47,436.489,1298,436.489Zm0-270.56a119.161,119.161,0,1,0,119.15,119.16A119.292,119.292,0,0,0,1298,165.929Z" transform="translate(-1039.91 -27)"/>
</svg>
